<?xml version="1.0" encoding="utf-8"?>
<!-- Generator: Adobe Illustrator 24.1.2, SVG Export Plug-In . SVG Version: 6.00 Build 0)  -->
<svg version="1.1" id="Layer_1" xmlns="http://www.w3.org/2000/svg" xmlns:xlink="http://www.w3.org/1999/xlink" x="0px" y="0px"
	 viewBox="0 0 150 150" style="enable-background:new 0 0 150 150;" xml:space="preserve">
<style type="text/css">
	.st0{fill:none;stroke:#1F1F1F;stroke-width:6;stroke-miterlimit:10;}
	.st1{fill:#1F1F1F;}
</style>
<circle class="st0" cx="75" cy="75" r="72"/>
<g>
	<path class="st1" d="M40.4,104.7H28.8V59.3l-11.3,4.4v-9.6l21.7-8.9h1.2V104.7z"/>
	<path class="st1" d="M90.5,61.1c0,2.9-0.6,5.4-1.8,7.7c-1.2,2.2-2.9,4-5.1,5.3c2.4,1.4,4.4,3.3,5.8,5.7s2.1,5.3,2.1,8.6
		c0,5.3-1.5,9.4-4.6,12.5c-3,3.1-7.2,4.6-12.4,4.6s-9.4-1.5-12.5-4.6c-3.1-3.1-4.7-7.2-4.7-12.5c0-3.3,0.7-6.2,2.1-8.6
		c1.4-2.4,3.4-4.4,5.8-5.7c-2.2-1.3-3.9-3.1-5.1-5.3c-1.2-2.2-1.8-4.8-1.8-7.7c0-5.2,1.5-9.3,4.4-12.2s6.8-4.4,11.7-4.4
		c4.9,0,8.9,1.5,11.7,4.4C89.1,51.9,90.5,56,90.5,61.1z M74.6,95.9c1.7,0,3.1-0.7,4-2.2s1.4-3.5,1.4-6.2s-0.5-4.7-1.5-6.2
		c-1-1.5-2.3-2.2-4-2.2c-1.7,0-3.1,0.7-4.1,2.2s-1.5,3.6-1.5,6.2s0.5,4.7,1.5,6.2S72.8,95.9,74.6,95.9z M79,61.7
		c0-2.3-0.4-4.2-1.1-5.5s-1.9-2.1-3.4-2.1c-1.5,0-2.6,0.7-3.3,2c-0.8,1.3-1.1,3.2-1.1,5.6c0,2.3,0.4,4.2,1.1,5.6
		c0.8,1.4,1.9,2.1,3.4,2.1s2.7-0.7,3.4-2.1C78.7,65.9,79,64,79,61.7z"/>
	<path class="st1" d="M120.9,71.4h11.5v10.7h-11.5v16.6H110V82.1H98.3V71.4H110V55.5h10.9V71.4z"/>
</g>
</svg>
