<?xml version="1.0" encoding="utf-8"?>
<!-- Generator: Adobe Illustrator 24.1.2, SVG Export Plug-In . SVG Version: 6.00 Build 0)  -->
<svg version="1.1" id="Layer_1" xmlns="http://www.w3.org/2000/svg" xmlns:xlink="http://www.w3.org/1999/xlink" x="0px" y="0px"
	 viewBox="0 0 168.2 155.2" style="enable-background:new 0 0 168.2 155.2;" xml:space="preserve">
<style type="text/css">
	.st0{fill:#CC0000;}
	.st1{fill:#FFFFFF;}
</style>
<path class="st0" d="M150.8,155.2H17.4c-9.6,0-17.4-7.8-17.4-17.4V17.4C0,7.8,7.8,0,17.4,0h133.4c9.6,0,17.4,7.8,17.4,17.4v120.5
	C168.2,147.5,160.4,155.2,150.8,155.2z"/>
<path class="st1" d="M61.8,77.8c1.7-1.2,3.6-2.2,5.5-3.1c-0.1-0.1-0.2-0.2-0.3-0.3c-0.2-0.1-0.4-0.2-0.7-0.3
	c-5.7-2.3-9.8-7.4-10.8-13.4c-1.3-5.9,0.1-12,3.8-16.7c0.3-0.5,0.4-0.7,0-1.2c-2.3-2.4-5.1-4.4-8.2-5.7c-3.8-1.6-7.8-2.6-11.9-2.7
	c-7.6-0.5-15,0.3-21.7,4.3C13.2,41.1,10,45,8.4,49.5c-1.1,3.1-1.5,6.4-1.1,9.7c0.4,4.6,2.7,8.9,6.3,11.8c1.9,1.5,4,2.6,6.2,3.4
	c-0.2,0.5-0.7,0.5-1,0.7c-6.3,2.3-11.1,7.4-13,13.9c-0.1,1.2-0.3,2.4-0.7,3.6v1.8c0.2,0.6,0.2,1.2,0,1.8V98c0.3,0.2,0.2,0.4,0.2,0.6
	c0.6,6.2,3.7,12,8.7,15.8c4.3,3.2,9.3,5.3,14.6,5.9c6.6,1.1,13.3,0.7,19.7-1.2c4-1.1,7.7-3.2,10.8-5.9c0.5-0.4,0.6-0.7,0.1-1.2
	c-3.9-4.3-6.1-9.9-6.1-15.7C52.5,89.1,55.8,82,61.8,77.8 M24.5,52.9c2-3.2,5.5-5.3,9.3-5.5c0.7,0,1.4,0,2.2,0
	c2.5-0.2,5.1,0.4,7.3,1.5c3,1.5,5.1,4.4,5.5,7.8c0.8,3.8-0.3,7.8-3,10.7c-1.5,1.5-3.4,2.4-5.5,2.8c-4.1,1-8.4,0.5-12.1-1.4
	c-3-1.7-4.9-4.9-4.9-8.4C22.8,57.8,23.3,55.2,24.5,52.9 M51.2,95.7c-0.1,4.3-2.6,8.3-6.5,10.2c-2.2,1.1-4.7,1.8-7.2,1.8
	c-3.6,0.3-7.2-0.4-10.4-2.2c-3.6-2-5.9-5.6-6.1-9.7c-0.5-3.6,0.6-7.3,3-10c1.9-1.9,4.3-3.2,6.9-3.8c1.5-0.4,3-0.6,4.5-0.6
	c3.7-0.2,7.3,0.7,10.5,2.6C49.8,86.6,51.9,91.1,51.2,95.7"/>
<path class="st1" d="M159.4,82.9c-2.5-3.5-6-6.1-10-7.7c-0.4-0.2-0.9-0.2-1.1-0.7c0,0,0-0.1,0.1-0.2l1-0.4c3.9-1.5,7.2-4.3,9.2-8
	c1.2-2.4,2-5,2.2-7.7c0.4-3.7-0.4-7.5-2-10.8c-1.9-3.8-5-6.9-8.7-9c-3.6-2.1-7.6-3.4-11.7-3.8c-6.3-0.9-12.8-0.4-18.9,1.5
	c-4,1.3-7.7,3.5-10.7,6.5c-0.5,0.5-0.5,0.8,0,1.3c2.1,2.6,3.4,5.7,3.9,9c0.4,2.8,0.3,5.7-0.3,8.5c-0.8,3.6-2.8,6.9-5.6,9.3
	c-1.6,1.4-3.4,2.5-5.4,3.3c-0.2,0-0.5,0.1-0.5,0.4s0.3,0.3,0.5,0.4c0.8,0.4,1.6,0.8,2.3,1.2c4.9,2.5,8.6,6.9,10.3,12.2
	c1.5,5.2,1.3,10.7-0.5,15.8c-1,2.9-2.7,5.6-4.8,7.8c-0.4,0.4-0.5,0.7,0,1.1c2.8,2.5,6.1,4.5,9.6,5.7c5,1.7,10.3,2.4,15.7,2.2
	c6.6,0,13-1.9,18.5-5.4c3.7-2.4,6.6-5.8,8.3-9.8c1.3-3.1,2.1-6.4,2.1-9.8C163.3,91.3,162,86.8,159.4,82.9 M122.7,50.4
	c2.2-2,5.1-3.1,8-3.1c2.3-0.2,4.6,0,6.8,0.6c4.3,1.2,7.4,5.1,7.6,9.6c0,0.5,0,1,0.1,1.4c0.3,3.7-1.4,7.2-4.5,9.3
	c-1.3,1-2.9,1.6-4.5,1.9c-3.2,0.7-6.6,0.5-9.7-0.5c-3.9-1.2-6.7-4.6-7-8.7C118.7,57.2,119.9,53.2,122.7,50.4 M147.5,95.2
	c0,3.4-1.5,6.7-4,9c-2.1,1.9-4.8,3.1-7.6,3.4c-3.9,0.7-7.9,0.3-11.5-1.3c-3.8-1.5-6.5-5-7.1-9c-0.8-3.6-0.1-7.3,2-10.3
	c1.8-2.4,4.4-4,7.3-4.7c1.9-0.5,3.8-0.8,5.8-0.7c3.3-0.2,6.5,0.6,9.3,2.3c3.9,2.4,6.1,6.8,5.7,11.4"/>
<path d="M72.9,52v-0.9c0.1-0.2,0.1-0.3,0.2-0.5c0.3-2.2,2-4.1,4.2-4.5c2.7-0.5,5.4,0.8,6.5,3.3c0.3,0.6,0.5,1.1,0.8,1.7
	c0.5-1,1.1-2.1,1.7-3c1.4-1.9,3.9-2.6,6.1-1.9c2.2,0.6,3.7,2.6,3.8,4.8c0.1,1.8-0.4,3.6-1.4,5.2c-1.4,2.2-2.9,4.2-4.3,6.2
	c-2.3,2.8-4.1,5.9-5.4,9.3c0,0.2-0.2,0.4-0.3,0.7c-0.8-2.6-2-5-3.7-7.2l-3.2-4.3C75.8,58.2,73.4,55.6,72.9,52"/>
</svg>
