<?xml version="1.0" encoding="utf-8"?>
<!-- Generator: Adobe Illustrator 24.1.2, SVG Export Plug-In . SVG Version: 6.00 Build 0)  -->
<svg version="1.1" id="Layer_1" xmlns="http://www.w3.org/2000/svg" xmlns:xlink="http://www.w3.org/1999/xlink" x="0px" y="0px"
	 viewBox="0 0 580.8 498.9" style="enable-background:new 0 0 580.8 498.9;" xml:space="preserve">
<style type="text/css">
	.st0{fill:#FFFFFF;}
	.st1{fill-rule:evenodd;clip-rule:evenodd;fill:#FFFFFF;}
</style>
<path class="st0" d="M331.4,450.6c-13.3,0-24.1,10.8-24.1,24.1s10.8,24.1,24.1,24.1h193.1c31.1,0,56.3-25.2,56.3-56.3V56.3
	c0-31.1-25.2-56.3-56.3-56.3H331.4c-13.3,0-24.1,10.8-24.1,24.1s10.8,24.1,24.1,24.1h193.1c4.4,0,8,3.6,8,8v386.3c0,4.4-3.6,8-8,8
	H331.4z"/>
<path class="st1" d="M460.5,239.5L183.3,26.6c-7.4-5.2-17,0.9-16.6,10.6l2.6,77.5c0.3,6.8-4.6,12.5-10.8,12.5l-147.7,0
	c-6,0-10.8,5.3-10.8,11.9V360c0,6.6,4.8,11.9,10.8,11.9h159l0,0l-3.1,86.8c-0.4,9.7,9.3,15.8,16.6,10.6l277.2-209.8
	C467.1,254.8,467.1,244.1,460.5,239.5z"/>
</svg>
