<svg xmlns="http://www.w3.org/2000/svg" viewBox="0 0 204.96 57.38"><defs><style>.cls-1{fill:#c00;}</style></defs><title>Ресурс 19888_hor_black</title><g id="Слой_2" data-name="Слой 2"><g id="Слой_1-2" data-name="Слой 1"><path class="cls-1" d="M26.17,20.2a15.59,15.59,0,0,1,2.54-1.41.72.72,0,0,0-.14-.15,2.88,2.88,0,0,0-.3-.14,8.25,8.25,0,0,1-5-6.17A9.34,9.34,0,0,1,25,4.61c.16-.22.2-.33,0-.54a11.65,11.65,0,0,0-3.8-2.65A15.66,15.66,0,0,0,15.7.16c-3.52-.21-6.92.15-10,2a9.57,9.57,0,0,0-4.19,5A9.48,9.48,0,0,0,1,11.64a8,8,0,0,0,2.92,5.45,10.4,10.4,0,0,0,2.86,1.59c-.09.24-.3.25-.47.32a9.69,9.69,0,0,0-6,6.39A8.48,8.48,0,0,1,0,27.06v.85a1.66,1.66,0,0,1,0,.85v.76c.13.07.09.19.1.29a10.42,10.42,0,0,0,4,7.29,14,14,0,0,0,6.74,2.73,20.61,20.61,0,0,0,9.07-.55,12.88,12.88,0,0,0,5-2.74c.22-.2.28-.3.05-.55a10.92,10.92,0,0,1-2.82-7.24,9.54,9.54,0,0,1,4-8.54M8.95,8.72a5.39,5.39,0,0,1,4.28-2.55,8.69,8.69,0,0,1,1,0,6.41,6.41,0,0,1,3.37.7,4.58,4.58,0,0,1,2.52,3.58,5.39,5.39,0,0,1-1.4,4.92,4.8,4.8,0,0,1-2.53,1.29A7.91,7.91,0,0,1,10.6,16a4.58,4.58,0,0,1-2.28-3.88,5.72,5.72,0,0,1,.63-3.37m12.3,19.72a5.5,5.5,0,0,1-3,4.72,7.81,7.81,0,0,1-3.31.85,8.32,8.32,0,0,1-4.78-1,5.42,5.42,0,0,1-2.81-4.47,5.61,5.61,0,0,1,1.4-4.62,6.3,6.3,0,0,1,3.18-1.73A8.6,8.6,0,0,1,14,21.94a8.57,8.57,0,0,1,4.85,1.18,5.39,5.39,0,0,1,2.42,5.32"/><path class="cls-1" d="M71.18,22.57A10.53,10.53,0,0,0,66.59,19c-.18-.08-.41-.09-.51-.31,0,0,0-.06.06-.07l.48-.19a8.19,8.19,0,0,0,4.26-3.69,9.13,9.13,0,0,0,1-3.55,9.19,9.19,0,0,0-.94-5,9.91,9.91,0,0,0-4-4.14A13.81,13.81,0,0,0,61.56.29,19.59,19.59,0,0,0,52.83,1a11.86,11.86,0,0,0-4.92,3c-.21.22-.25.35,0,.62a9,9,0,0,1,1.81,4.17,10.43,10.43,0,0,1-.15,3.92A7.85,7.85,0,0,1,47,17a9.69,9.69,0,0,1-2.48,1.51c-.09,0-.24.05-.25.19s.15.14.24.19c.36.19.73.35,1.08.55a9.37,9.37,0,0,1,4.73,5.63,11.86,11.86,0,0,1-.22,7.31A10.11,10.11,0,0,1,47.89,36c-.17.18-.24.3,0,.49a12.78,12.78,0,0,0,4.43,2.62,20,20,0,0,0,7.22,1,16.12,16.12,0,0,0,8.54-2.49,10.48,10.48,0,0,0,3.85-4.51,11.42,11.42,0,0,0,.95-4.53,9.67,9.67,0,0,0-1.69-6m-16.94-15a5.61,5.61,0,0,1,3.7-1.43,8.67,8.67,0,0,1,3.13.29,4.83,4.83,0,0,1,3.49,4.43c0,.22,0,.44.05.66a4.81,4.81,0,0,1-2.06,4.3,5.12,5.12,0,0,1-2.07.87A8.72,8.72,0,0,1,56,16.46a4.64,4.64,0,0,1-3.25-4,5.27,5.27,0,0,1,1.52-4.87m11.4,20.63a5.61,5.61,0,0,1-1.86,4.13,6.52,6.52,0,0,1-3.52,1.57A9.16,9.16,0,0,1,55,33.33a5.29,5.29,0,0,1-3.26-4.15,6,6,0,0,1,.9-4.77,6,6,0,0,1,3.39-2.16,8.08,8.08,0,0,1,2.67-.31A7.54,7.54,0,0,1,63,23a5.48,5.48,0,0,1,2.62,5.24"/><path d="M31.92,28.06l4.7-6.41,4.7,6.41-4.71,6.41-4.7-6.41"/><path d="M31.26,8.3V7.9a1.3,1.3,0,0,0,.08-.22,2.43,2.43,0,0,1,1.94-2.07,2.71,2.71,0,0,1,3,1.54c.13.26.24.53.35.78a12.24,12.24,0,0,1,.79-1.4,2.6,2.6,0,0,1,2.83-.88A2.45,2.45,0,0,1,42,7.88a3.9,3.9,0,0,1-.66,2.38c-.64,1-1.35,1.92-2,2.86a15.53,15.53,0,0,0-2.5,4.27c0,.09-.07.18-.13.33A10.27,10.27,0,0,0,35,14.41l-1.47-2c-.92-1.27-2-2.44-2.26-4.08"/><path d="M78.06,27.9h8c0,3.06,1.53,4.38,4,4.38s3.83-1.48,3.83-3.39c0-6.35-15-7.11-15-18.77C78.88,4.27,83,0,90,0s11.33,4.21,11.33,11.27h-8c0-2.52-1.15-3.78-3.39-3.78-2,0-3.23,1.09-3.23,2.85,0,6,15.21,6.4,15.21,18.6,0,6.29-4.43,10.89-12,10.89C82.66,39.83,78.06,35.62,78.06,27.9Z"/><path d="M127.25,8.15h-7.5V39.07h-8V8.15h-7.5V.77h23Z"/><path d="M143,32.72h-8.1l-1.26,6.35h-8L134.78.77h8.32l9.19,38.3h-8Zm-1.53-7.39L140.58,21c-.49-2.74-1.15-7.39-1.53-10.51h-.22c-.38,3.12-1,7.77-1.53,10.51l-.88,4.38Z"/><path d="M166.19,26.21h-2.74V39.07h-7.77V.77h11.11c7.61,0,12.09,4.71,12.09,12.75,0,5.2-1.92,9-5.31,11.05l7.22,14.5h-8.48Zm-2.74-7.39h3.23c2.74,0,4.21-1.86,4.21-5.31s-1.48-5.36-4.21-5.36h-3.23Z"/><path d="M204.94,31.68v7.39H183v-5.2L195.15,8.15H183.93V.77h20.74V6.13l-12,25.55Z"/><path d="M2.59,47.79H4.21v9.46H2.59Z"/><path d="M16.09,51.35h1.6V55.9a6.2,6.2,0,0,1-2,1.1,7.53,7.53,0,0,1-2.4.38,6.51,6.51,0,0,1-3.18-.77,5.74,5.74,0,0,1-2.22-2.13,6.2,6.2,0,0,1,0-6.12,5.65,5.65,0,0,1,2.23-2.13,6.65,6.65,0,0,1,3.21-.77,6.76,6.76,0,0,1,2.54.46,5.19,5.19,0,0,1,1.94,1.34l-1,1a4.69,4.69,0,0,0-3.38-1.35,4.92,4.92,0,0,0-2.39.57,4.21,4.21,0,0,0-1.66,1.6,4.7,4.7,0,0,0,0,4.6A4.27,4.27,0,0,0,11,55.31a4.83,4.83,0,0,0,2.37.58,4.94,4.94,0,0,0,2.73-.75Z"/><path d="M27,55H21.92l-1,2.25H19.34l4.33-9.46h1.6l4.35,9.46H28Zm-.57-1.28-2-4.46-2,4.46Z"/><path d="M40.44,57.25l0-6.56-3.26,5.43h-.75l-3.26-5.28v6.41H31.59V47.79H33l3.83,6.36,3.76-6.36H42l0,9.46Z"/><path d="M45.29,47.79H46.9v9.46H45.29Z"/><path d="M58.61,47.79v9.46H57.28l-5.46-6.68v6.68H50.2V47.79h1.33L57,54.5V47.79Z"/><path d="M68.51,52.47h1.57v3.7a4.81,4.81,0,0,1-1.65.9,6.39,6.39,0,0,1-2,.32,5.6,5.6,0,0,1-2.67-.63,4.78,4.78,0,0,1,0-8.46,5.49,5.49,0,0,1,2.63-.63,4.83,4.83,0,0,1,3.81,1.48l-1,1a3.64,3.64,0,0,0-2.75-1.13,3.74,3.74,0,0,0-1.82.44,3.22,3.22,0,0,0-1.27,1.23,3.51,3.51,0,0,0-.46,1.79,3.47,3.47,0,0,0,.46,1.77,3.24,3.24,0,0,0,1.28,1.24,3.82,3.82,0,0,0,1.86.45,3.86,3.86,0,0,0,2.06-.53Z"/><path d="M78.44,45.59h4.91a7.1,7.1,0,0,1,3.28.73,5.38,5.38,0,0,1,2.22,2.06,6.23,6.23,0,0,1,0,6.08,5.38,5.38,0,0,1-2.22,2.06,7.1,7.1,0,0,1-3.28.73H78.44ZM83.25,55.8a5.39,5.39,0,0,0,2.49-.55,4,4,0,0,0,1.66-1.54,4.79,4.79,0,0,0,0-4.58,4,4,0,0,0-1.66-1.54A5.39,5.39,0,0,0,83.25,47H80.1V55.8Z"/><path d="M99.56,55.9v1.35h-7.1V47.79h6.91v1.33h-5.3v2.66h4.71V53.1H94.08v2.8Z"/><path d="M104,47V51.1h5.85v1.43H104v4.71h-1.67V45.59h8.23V47Z"/><path d="M112.49,47.79h1.62v9.46h-1.62Z"/><path d="M130.87,46.67a4.07,4.07,0,0,1,0,6,5.4,5.4,0,0,1-3.56,1.08h-2.88v3.53h-1.67V45.59h4.55A5.4,5.4,0,0,1,130.87,46.67Zm-1.2,4.92a2.68,2.68,0,0,0,0-3.88,3.76,3.76,0,0,0-2.42-.67h-2.83v5.23h2.83A3.76,3.76,0,0,0,129.67,51.59Z"/><path d="M134.72,47.79h1.62V55.9h5.08v1.35h-6.7Z"/><path d="M150.32,55h-5.08l-1,2.25h-1.58L147,47.79h1.6l4.35,9.46H151.3Zm-.57-1.28-2-4.46-2,4.46Z"/><path d="M155.75,49.12h-3.23V47.79h8.08v1.33h-3.23v8.13h-1.62Z"/><path d="M164.23,49.12V52.2h4.71v1.33h-4.71v3.71h-1.62V47.79h6.91v1.33Z"/><path d="M173.56,56.75a4.79,4.79,0,0,1,0-8.46,5.8,5.8,0,0,1,5.27,0,4.79,4.79,0,0,1,0,8.46,5.8,5.8,0,0,1-5.27,0ZM178,55.53a3.31,3.31,0,0,0,1.26-1.23,3.7,3.7,0,0,0,0-3.56A3.31,3.31,0,0,0,178,49.5a3.82,3.82,0,0,0-3.6,0,3.31,3.31,0,0,0-1.26,1.23,3.69,3.69,0,0,0,0,3.56,3.3,3.3,0,0,0,1.26,1.23,3.82,3.82,0,0,0,3.6,0Z"/><path d="M190.25,57.25l-2-2.83-.43,0h-2.25v2.81h-1.62V47.79h3.86a4.56,4.56,0,0,1,3,.88,3,3,0,0,1,1.08,2.45,3.12,3.12,0,0,1-.54,1.85,3.25,3.25,0,0,1-1.54,1.15L192,57.25Zm-.69-4.65a2,2,0,0,0,0-3,2.93,2.93,0,0,0-1.87-.52h-2.15v4h2.15A2.93,2.93,0,0,0,189.55,52.6Z"/><path d="M203.41,57.25l0-6.56-3.26,5.43h-.75l-3.26-5.28v6.41h-1.55V47.79h1.38l3.83,6.36,3.76-6.36h1.4l0,9.46Z"/></g></g></svg>