<?xml version="1.0" encoding="utf-8"?>
<!-- Generator: Adobe Illustrator 24.1.2, SVG Export Plug-In . SVG Version: 6.00 Build 0)  -->
<svg version="1.1" id="Layer_1" xmlns="http://www.w3.org/2000/svg" xmlns:xlink="http://www.w3.org/1999/xlink" x="0px" y="0px"
	 viewBox="0 0 625 625" style="enable-background:new 0 0 625 625;" xml:space="preserve">
<style type="text/css">
	.st0{fill:#FFFFFF;}
</style>
<path class="st0" d="M618.8,312.5H575c-3.4,0-6.3,2.8-6.3,6.3v250H56.3V56.3h250c3.4,0,6.3-2.8,6.3-6.3V6.3c0-3.4-2.8-6.3-6.3-6.3
	H25C11.2,0,0,11.2,0,25v575c0,13.8,11.2,25,25,25h575c13.8,0,25-11.2,25-25V318.8C625,315.3,622.2,312.5,618.8,312.5z"/>
<path class="st0" d="M190.5,330.4l-1.5,92.9c-0.1,7,5.5,12.7,12.5,12.7h0.3l92.2-2.3c1.6-0.1,3.1-0.7,4.2-1.8l324.9-324.2
	c2.4-2.4,2.4-6.4,0-8.8l-97.1-97c-1.2-1.2-2.8-1.8-4.5-1.8c-1.6,0-3.2,0.6-4.5,1.8L192.3,326C191.2,327.2,190.6,328.8,190.5,330.4
	L190.5,330.4z M240.2,348.8L521.6,68l35.3,35.2l-281.6,281l-35.7,0.9L240.2,348.8L240.2,348.8z"/>
</svg>
